<?xml version="1.0" encoding="UTF-8" standalone="no"?>
<!DOCTYPE svg PUBLIC "-//W3C//DTD SVG 20010904//EN"
              "http://www.w3.org/TR/2001/REC-SVG-20010904/DTD/svg10.dtd">

<svg xmlns="http://www.w3.org/2000/svg"
     width="1.63333in" height="0.403333in"
     viewBox="0 0 490 121">
  <path id="Selection"
        fill="white" stroke="black" stroke-width="1"
        d="M 149.00,51.00
           C 162.30,43.43 166.25,43.83 181.00,44.00
             204.70,44.28 215.25,61.09 215.00,83.00
             214.92,89.13 213.44,95.59 210.48,101.00
             204.93,111.14 194.57,119.03 183.00,120.85
             183.00,120.85 170.00,120.85 170.00,120.85
             141.17,120.66 131.29,93.53 131.00,69.00
             130.68,41.47 139.64,11.02 169.00,2.21
             174.72,0.49 179.08,0.01 185.00,0.00
             192.33,-0.01 196.64,-0.32 204.00,1.00
             204.00,1.00 204.00,17.00 204.00,17.00
             195.17,16.57 198.26,14.99 186.00,15.00
             165.14,15.02 150.71,30.69 149.00,51.00 Z
           M 439.00,0.23
           C 443.33,-0.14 447.64,-0.01 452.00,0.23
             457.15,0.01 459.01,-0.06 464.00,1.70
             491.15,11.27 490.27,46.41 490.00,70.00
             489.82,85.46 485.70,104.65 473.00,114.61
             464.17,121.54 455.47,121.12 445.00,121.00
             426.28,120.78 417.22,109.79 412.02,93.00
             409.64,85.31 408.10,71.11 408.00,63.00
             408.00,63.00 408.91,48.00 408.91,48.00
             410.46,26.76 415.26,6.06 439.00,0.23 Z
           M 0.00,2.00
           C 0.00,2.00 15.00,2.00 15.00,2.00
             24.13,2.02 23.77,3.10 29.69,16.00
             29.69,16.00 44.26,47.00 44.26,47.00
             47.09,52.86 50.79,58.55 52.00,65.00
             56.14,60.85 61.23,47.90 63.86,42.00
             63.86,42.00 82.00,2.00 82.00,2.00
             82.00,2.00 105.00,2.00 105.00,2.00
             105.00,2.00 105.00,119.00 105.00,119.00
             105.00,119.00 89.00,119.00 89.00,119.00
             89.00,119.00 89.00,55.00 89.00,55.00
             89.00,55.00 88.00,22.00 88.00,22.00
             86.48,27.34 83.61,31.98 81.31,37.00
             81.31,37.00 64.31,73.00 64.31,73.00
             60.97,80.27 60.38,87.72 51.01,86.94
             43.94,86.35 41.82,76.50 39.22,71.00
             39.22,71.00 16.00,22.00 16.00,22.00
             16.00,22.00 16.00,119.00 16.00,119.00
             16.00,119.00 0.00,119.00 0.00,119.00
             0.00,119.00 0.00,2.00 0.00,2.00 Z
           M 317.00,29.00
           C 317.00,29.00 318.02,18.60 318.02,18.60
             318.02,18.60 334.00,15.02 334.00,15.02
             334.00,15.02 341.86,8.91 341.86,8.91
             341.86,8.91 345.56,3.02 345.56,3.02
             345.56,3.02 358.00,2.00 358.00,2.00
             358.00,2.00 358.00,107.00 358.00,107.00
             358.00,107.00 382.00,107.00 382.00,107.00
             382.00,107.00 382.00,119.00 382.00,119.00
             382.00,119.00 317.00,119.00 317.00,119.00
             317.00,119.00 317.00,107.00 317.00,107.00
             317.00,107.00 342.00,107.00 342.00,107.00
             342.00,107.00 342.00,29.00 342.00,29.00
             342.00,29.00 317.00,29.00 317.00,29.00 Z
           M 443.00,14.43
           C 428.98,18.12 426.57,32.49 425.96,45.00
             425.96,45.00 425.00,56.00 425.00,56.00
             424.89,65.57 425.19,79.91 427.64,89.00
             430.46,99.47 435.35,106.69 447.00,106.83
             449.21,107.04 452.89,107.05 455.00,106.83
             470.46,103.91 472.98,83.87 473.00,71.00
             473.02,58.60 473.93,42.78 470.57,31.00
             468.36,23.26 464.36,16.52 456.00,14.43
             452.41,13.68 446.69,13.91 443.00,14.43 Z
           M 250.00,31.00
           C 250.00,31.00 269.00,31.00 269.00,31.00
             269.00,31.00 269.00,53.00 269.00,53.00
             269.00,53.00 250.00,53.00 250.00,53.00
             250.00,53.00 250.00,31.00 250.00,31.00 Z
           M 163.00,58.32
           C 159.42,59.13 151.03,61.28 149.02,64.39
             147.36,66.97 147.99,75.84 148.42,79.00
             150.40,93.45 156.15,106.78 173.00,107.00
             179.67,107.08 184.46,106.99 189.91,102.47
             199.50,94.51 201.12,74.35 192.79,65.04
             185.32,56.71 173.27,57.20 163.00,58.32 Z
           M 250.00,97.00
           C 250.00,97.00 269.00,97.00 269.00,97.00
             269.00,97.00 269.00,119.00 269.00,119.00
             269.00,119.00 250.00,119.00 250.00,119.00
             250.00,119.00 250.00,97.00 250.00,97.00 Z" />
</svg>
