<?xml version="1.0" encoding="UTF-8" standalone="no"?>
<!DOCTYPE svg PUBLIC "-//W3C//DTD SVG 20010904//EN"
              "http://www.w3.org/TR/2001/REC-SVG-20010904/DTD/svg10.dtd">

<svg xmlns="http://www.w3.org/2000/svg"
     width="0.24in" height="0.383333in"
     viewBox="0 0 72 115">
  <path id="Selection"
        fill="white" stroke="black" stroke-width="1"
        d="M 50.00,18.00
           C 54.88,16.81 61.48,16.09 65.86,19.01
             73.35,23.93 72.44,36.99 65.86,42.20
             58.62,47.86 45.66,45.52 41.57,37.00
             38.31,30.20 40.16,19.29 43.93,13.00
             46.96,7.94 51.52,3.67 57.00,1.48
             59.21,0.43 62.18,-0.45 64.07,1.48
             65.46,3.12 65.72,6.05 66.00,8.00
             57.86,9.28 55.17,11.84 50.00,18.00 Z
           M 0.00,1.00
           C 10.58,1.00 9.95,0.30 17.00,12.00
             21.68,1.51 22.01,1.00 33.00,1.00
             33.00,1.00 33.00,44.00 33.00,44.00
             33.00,44.00 24.00,44.00 24.00,44.00
             24.00,44.00 23.00,17.00 23.00,17.00
             23.00,17.00 21.10,20.98 21.10,20.98
             15.85,29.98 12.40,22.20 9.00,17.00
             9.00,17.00 9.00,44.00 9.00,44.00
             9.00,44.00 0.00,44.00 0.00,44.00
             0.00,44.00 0.00,1.00 0.00,1.00 Z
           M 53.06,25.43
           C 45.34,28.99 50.08,38.16 56.98,36.67
             62.04,35.58 63.66,29.58 60.48,26.60
             58.41,24.66 55.58,25.07 53.06,25.43 Z
           M 50.00,70.57
           C 55.01,69.66 61.59,69.30 65.81,72.65
             72.21,77.71 72.03,86.67 72.00,94.00
             71.94,106.63 68.07,115.40 54.00,114.98
             34.60,114.42 37.32,83.82 42.70,76.02
             44.87,72.87 46.58,71.91 50.00,70.57 Z
           M 14.00,82.00
           C 12.32,83.21 9.04,85.90 7.04,86.10
             4.34,86.37 2.33,83.69 3.25,81.16
             4.23,78.44 12.21,72.72 15.00,71.72
             17.24,70.92 19.66,71.02 22.00,71.00
             22.00,71.00 22.00,107.00 22.00,107.00
             22.00,107.00 32.00,107.00 32.00,107.00
             32.00,107.00 32.00,114.00 32.00,114.00
             32.00,114.00 4.00,114.00 4.00,114.00
             4.00,114.00 4.00,107.00 4.00,107.00
             4.00,107.00 14.00,107.00 14.00,107.00
             14.00,107.00 14.00,82.00 14.00,82.00 Z
           M 62.00,81.00
           C 60.24,79.76 59.23,78.78 57.00,78.33
             47.90,76.48 48.00,88.22 48.00,94.00
             53.73,90.16 57.95,86.65 62.00,81.00 Z
           M 63.00,91.00
           C 59.83,93.01 49.11,100.23 51.17,104.69
             52.75,108.12 58.31,106.92 60.35,104.69
             63.54,101.21 63.00,95.39 63.00,91.00 Z" />
</svg>
